<svg width="18" height="19" viewBox="0 0 18 19" fill="none" xmlns="http://www.w3.org/2000/svg">
<path d="M5 13.5H3C2.46957 13.5 1.96086 13.2893 1.58579 12.9142C1.21071 12.5391 1 12.0304 1 11.5V3.5C1 2.96957 1.21071 2.46086 1.58579 2.08579C1.96086 1.71071 2.46957 1.5 3 1.5H11C11.5304 1.5 12.0391 1.71071 12.4142 2.08579C12.7893 2.46086 13 2.96957 13 3.5V5.5M7 17.5H15C15.5304 17.5 16.0391 17.2893 16.4142 16.9142C16.7893 16.5391 17 16.0304 17 15.5V7.5C17 6.96957 16.7893 6.46086 16.4142 6.08579C16.0391 5.71071 15.5304 5.5 15 5.5H7C6.46957 5.5 5.96086 5.71071 5.58579 6.08579C5.21071 6.46086 5 6.96957 5 7.5V15.5C5 16.0304 5.21071 16.5391 5.58579 16.9142C5.96086 17.2893 6.46957 17.5 7 17.5Z" stroke="white" stroke-width="2" stroke-linecap="round" stroke-linejoin="round"/>
</svg>
