<svg width="21" height="16" viewBox="0 0 21 16" fill="none" xmlns="http://www.w3.org/2000/svg">
<path d="M17.4308 1.64164C16.1342 1.04645 14.7658 0.622014 13.3599 0.378977C13.3471 0.376595 13.334 0.3783 13.3222 0.383851C13.3105 0.389402 13.3008 0.398515 13.2945 0.409894C13.1187 0.722644 12.9239 1.13056 12.7876 1.45114C11.2503 1.22098 9.72092 1.22098 8.21525 1.45114C8.07892 1.12339 7.87709 0.722644 7.7005 0.409894C7.69396 0.398774 7.68422 0.389884 7.67255 0.384384C7.66088 0.378883 7.64783 0.377028 7.63509 0.379061C6.22907 0.621533 4.86058 1.04593 3.56409 1.64156C3.55299 1.6463 3.54365 1.65437 3.53734 1.66464C0.944503 5.53831 0.23417 9.31673 0.58267 13.0483C0.583655 13.0574 0.586464 13.0663 0.59093 13.0743C0.595396 13.0824 0.601429 13.0894 0.60867 13.0951C2.31934 14.3514 3.97642 15.1141 5.60275 15.6196C5.6154 15.6233 5.6289 15.6232 5.64144 15.619C5.65398 15.6149 5.66496 15.6071 5.67292 15.5966C6.05759 15.0712 6.4005 14.5172 6.69459 13.9347C6.69863 13.9268 6.70094 13.918 6.70136 13.9091C6.70178 13.9001 6.7003 13.8912 6.69703 13.8829C6.69375 13.8746 6.68875 13.8671 6.68236 13.8608C6.67596 13.8546 6.66831 13.8497 6.65992 13.8466C6.11592 13.6403 5.598 13.3887 5.09975 13.1031C5.09067 13.0977 5.08303 13.0902 5.07753 13.0812C5.07203 13.0723 5.06882 13.0621 5.06819 13.0515C5.06757 13.041 5.06954 13.0305 5.07394 13.0209C5.07834 13.0114 5.08503 13.003 5.09342 12.9966C5.19825 12.9181 5.30317 12.8364 5.40325 12.7538C5.41215 12.7465 5.42291 12.7418 5.43434 12.7402C5.44577 12.7387 5.4574 12.7404 5.46792 12.7451C8.74109 14.2395 12.2846 14.2395 15.5191 12.7451C15.5296 12.74 15.5414 12.7381 15.5529 12.7395C15.5645 12.7409 15.5755 12.7456 15.5845 12.753C15.6847 12.8355 15.7895 12.9181 15.8952 12.9966C15.9036 13.003 15.9103 13.0112 15.9148 13.0208C15.9192 13.0303 15.9213 13.0408 15.9207 13.0513C15.9202 13.0618 15.9171 13.072 15.9117 13.081C15.9062 13.09 15.8987 13.0976 15.8897 13.103C15.3912 13.3941 14.8691 13.6426 14.3288 13.8458C14.3204 13.849 14.3128 13.854 14.3065 13.8603C14.3001 13.8667 14.2952 13.8743 14.292 13.8827C14.2888 13.8911 14.2874 13.9001 14.2879 13.909C14.2884 13.918 14.2908 13.9267 14.2949 13.9347C14.5953 14.5164 14.9382 15.0704 15.3158 15.5957C15.3235 15.6066 15.3344 15.6147 15.347 15.619C15.3596 15.6233 15.3732 15.6235 15.3859 15.6196C17.0201 15.114 18.6772 14.3513 20.3878 13.0951C20.3952 13.0897 20.4013 13.0828 20.4058 13.0749C20.4103 13.0669 20.4131 13.0581 20.4139 13.0491C20.8309 8.73489 19.7154 4.98748 17.4568 1.66539C17.4513 1.6546 17.4421 1.64623 17.4308 1.64164ZM7.18334 10.7761C6.19792 10.7761 5.38592 9.87139 5.38592 8.76031C5.38592 7.64931 6.18217 6.74456 7.18342 6.74456C8.19242 6.74456 8.9965 7.65723 8.98075 8.76039C8.98075 9.87139 8.1845 10.7761 7.18334 10.7761ZM13.829 10.7761C12.8436 10.7761 12.0316 9.87139 12.0316 8.76031C12.0316 7.64931 12.8278 6.74456 13.829 6.74456C14.838 6.74456 15.6421 7.65723 15.6263 8.76039C15.6263 9.87139 14.838 10.7761 13.829 10.7761Z" fill="#F4F4F5"/>
</svg>
