<svg width="17" height="20" viewBox="0 0 17 20" fill="none" xmlns="http://www.w3.org/2000/svg">
<path fill-rule="evenodd" clip-rule="evenodd" d="M8.49935 0C3.89685 0 0.166016 3.73083 0.166016 8.33333V13.75C0.166016 14.133 0.241457 14.5123 0.388034 14.8662C0.53461 15.22 0.74945 15.5416 1.02029 15.8124C1.29112 16.0832 1.61266 16.2981 1.96652 16.4446C2.32039 16.5912 2.69966 16.6667 3.08268 16.6667C3.4657 16.6667 3.84498 16.5912 4.19884 16.4446C4.55271 16.2981 4.87424 16.0832 5.14508 15.8124C5.41591 15.5416 5.63075 15.22 5.77733 14.8662C5.92391 14.5123 5.99935 14.133 5.99935 13.75V12.0833C5.99945 11.5912 5.87504 11.1071 5.63771 10.676C5.40037 10.245 5.05783 9.88094 4.64196 9.61786C4.22609 9.35478 3.75042 9.2012 3.25923 9.17141C2.76804 9.14163 2.27729 9.2366 1.83268 9.4475V8.33333C1.83268 6.56522 2.53506 4.86953 3.7853 3.61929C5.03555 2.36905 6.73124 1.66667 8.49935 1.66667C10.2675 1.66667 11.9632 2.36905 13.2134 3.61929C14.4636 4.86953 15.166 6.56522 15.166 8.33333V9.4475C14.7214 9.2366 14.2307 9.14163 13.7395 9.17141C13.2483 9.2012 12.7726 9.35478 12.3567 9.61786C11.9409 9.88094 11.5983 10.245 11.361 10.676C11.1237 11.1071 10.9992 11.5912 10.9993 12.0833V13.75C10.9993 14.9692 11.7468 16.0133 12.8085 16.4492C12.5785 16.6742 12.2993 16.9033 11.9793 17.1225C10.9593 17.8233 9.66268 18.3333 8.49935 18.3333C8.27833 18.3333 8.06637 18.4211 7.91009 18.5774C7.75381 18.7337 7.66602 18.9457 7.66602 19.1667C7.66602 19.3877 7.75381 19.5996 7.91009 19.7559C8.06637 19.9122 8.27833 20 8.49935 20C10.0968 20 11.7177 19.325 12.9243 18.4958C13.5327 18.0783 14.0685 17.5983 14.4618 17.1042C14.606 16.9225 14.7435 16.7233 14.8585 16.5108C15.4344 16.3139 15.9342 15.942 16.2882 15.4469C16.6422 14.9519 16.8326 14.3586 16.8327 13.75V8.33333C16.8327 3.73083 13.1018 0 8.49935 0Z" fill="#F4F4F5"/>
</svg>
