<svg width="17" height="14" viewBox="0 0 17 14" fill="none" xmlns="http://www.w3.org/2000/svg">
<path d="M0.611173 5.74262L15.5278 0.106412C16.0261 -0.081621 16.5822 0.169087 16.7702 0.667304C16.8361 0.842479 16.8505 1.03213 16.8103 1.21454L14.2389 12.9483C14.1088 13.543 13.5213 13.9198 12.9267 13.7888C12.7788 13.7567 12.6398 13.694 12.5168 13.6056L7.39576 9.90437C7.08793 9.68179 7.01801 9.25104 7.24143 8.94245C7.26551 8.90954 7.29285 8.8782 7.32176 8.84929L12.5876 3.78918C12.6968 3.68391 12.7001 3.50954 12.5948 3.39945C12.504 3.30543 12.3593 3.28775 12.2485 3.35846L5.07099 7.9147C4.64591 8.1847 4.12117 8.24579 3.64466 8.08104L0.629657 7.03804C0.270465 6.91429 0.0800151 6.52129 0.203765 6.16212C0.271265 5.96929 0.419923 5.81495 0.611173 5.74262Z" fill="#F4F4F5"/>
</svg>
